<svg width="32" height="32" viewBox="0 0 32 32" fill="none" xmlns="http://www.w3.org/2000/svg">
<path d="M17.096 5.90798C16.9737 5.73033 16.81 5.58507 16.6191 5.48472C16.4282 5.38438 16.2157 5.33194 16 5.33194C15.7843 5.33194 15.5719 5.38438 15.3809 5.48472C15.19 5.58507 15.0263 5.73033 14.904 5.90798L2.90402 23.2413C2.76512 23.4412 2.68367 23.6754 2.66851 23.9184C2.65335 24.1614 2.70507 24.4038 2.81804 24.6195C2.93102 24.8351 3.10092 25.0157 3.30931 25.1415C3.51769 25.2674 3.75658 25.3337 4.00002 25.3333L28 25.3333C28.2429 25.3323 28.4809 25.2651 28.6884 25.139C28.896 25.0128 29.0652 24.8325 29.1779 24.6173C29.2906 24.4022 29.3426 24.1604 29.3281 23.918C29.3137 23.6755 29.2335 23.4416 29.096 23.2413L17.096 5.90798Z" fill="#007A34"/>
</svg>
