<svg width="32" height="32" viewBox="0 0 32 32" fill="none" xmlns="http://www.w3.org/2000/svg">
<path d="M14.904 26.092C15.0263 26.2697 15.19 26.4149 15.3809 26.5153C15.5719 26.6156 15.7843 26.668 16 26.668C16.2157 26.668 16.4282 26.6156 16.6191 26.5153C16.81 26.4149 16.9737 26.2697 17.096 26.092L29.096 8.75866C29.2349 8.55873 29.3164 8.32457 29.3315 8.0816C29.3467 7.83863 29.295 7.59615 29.182 7.38052C29.069 7.16488 28.8991 6.98432 28.6907 6.85847C28.4823 6.73261 28.2434 6.66627 28 6.66666H4.00001C3.75713 6.66766 3.51912 6.73485 3.31158 6.86101C3.10404 6.98716 2.93481 7.16751 2.8221 7.38265C2.70939 7.59779 2.65745 7.83959 2.67189 8.08203C2.68632 8.32448 2.76657 8.55841 2.90401 8.75866L14.904 26.092Z" fill="#FD3B11"/>
</svg>
