<svg width="43" height="43" viewBox="0 0 43 43" fill="none" xmlns="http://www.w3.org/2000/svg">
<g clip-path="url(#clip0)">
<path d="M35.7531 13.7284H27.9753C26.9442 13.7294 25.9557 14.1395 25.2266 14.8686C24.4975 15.5976 24.0875 16.5862 24.0864 17.6173V25.3951C24.0871 26.0824 24.3605 26.7415 24.8465 27.2275C25.3326 27.7136 25.9916 27.987 26.679 27.9877V37.0617C26.6797 37.7491 26.9531 38.4081 27.4391 38.8942C27.9252 39.3803 28.5842 39.6536 29.2716 39.6543H34.4568C35.1442 39.6536 35.8032 39.3803 36.2893 38.8942C36.7753 38.4081 37.0487 37.7491 37.0494 37.0617V27.9877C37.7368 27.987 38.3958 27.7136 38.8819 27.2275C39.3679 26.7415 39.6413 26.0824 39.642 25.3951V17.6173C39.6409 16.5862 39.2309 15.5976 38.5018 14.8686C37.7727 14.1395 36.7842 13.7294 35.7531 13.7284ZM37.0494 25.3951H34.4568V37.0617H29.2716V25.3951H26.679V17.6173C26.679 17.2735 26.8156 16.9438 27.0587 16.7007C27.3018 16.4576 27.6315 16.321 27.9753 16.321H35.7531C36.0969 16.321 36.4266 16.4576 36.6697 16.7007C36.9128 16.9438 37.0494 17.2735 37.0494 17.6173V25.3951Z" fill="#ffffff"/>
<path d="M26.679 7.24689C26.679 6.22136 26.9831 5.21886 27.5528 4.36616C28.1226 3.51346 28.9324 2.84886 29.8799 2.45641C30.8273 2.06395 31.8699 1.96127 32.8757 2.16134C33.8815 2.36141 34.8055 2.85525 35.5306 3.58041C36.2558 4.30558 36.7496 5.22949 36.9497 6.23531C37.1498 7.24114 37.0471 8.28371 36.6546 9.23118C36.2622 10.1786 35.5976 10.9885 34.7449 11.5582C33.8922 12.128 32.8897 12.4321 31.8641 12.4321C30.4894 12.4307 29.1713 11.884 28.1992 10.9119C27.2271 9.93974 26.6803 8.62167 26.679 7.24689ZM29.2715 7.24689C29.2715 7.75966 29.4236 8.26091 29.7085 8.68726C29.9934 9.11361 30.3983 9.44591 30.872 9.64214C31.3457 9.83836 31.867 9.88971 32.3699 9.78967C32.8728 9.68963 33.3348 9.44271 33.6974 9.08013C34.06 8.71755 34.3069 8.2556 34.4069 7.75268C34.507 7.24977 34.4556 6.72849 34.2594 6.25475C34.0632 5.78102 33.7309 5.37611 33.3045 5.09123C32.8782 4.80635 32.3769 4.6543 31.8641 4.6543C31.1768 4.65499 30.5177 4.92836 30.0317 5.41441C29.5456 5.90047 29.2722 6.55951 29.2715 7.24689Z" fill="#ffffff"/>
<path d="M18.9012 21.5062V17.6173C18.9002 16.5862 18.4901 15.5976 17.761 14.8686C17.0319 14.1395 16.0434 13.7294 15.0123 13.7284H7.23453C6.20345 13.7294 5.2149 14.1395 4.48581 14.8686C3.75673 15.5976 3.34667 16.5862 3.34564 17.6173V21.5062H0.753052V24.0988H21.4938V21.5062H18.9012ZM5.93824 17.6173C5.93824 17.2735 6.07481 16.9438 6.31791 16.7007C6.56102 16.4576 6.89073 16.321 7.23453 16.321H15.0123C15.3561 16.321 15.6858 16.4576 15.9289 16.7007C16.172 16.9438 16.3086 17.2735 16.3086 17.6173V21.5062H5.93824V17.6173Z" fill="#ffffff"/>
<path d="M5.93823 7.24689C5.93823 6.22136 6.24234 5.21886 6.81209 4.36616C7.38185 3.51346 8.19166 2.84886 9.13913 2.45641C10.0866 2.06395 11.1292 1.96127 12.135 2.16134C13.1408 2.36141 14.0647 2.85525 14.7899 3.58041C15.5151 4.30558 16.0089 5.22949 16.209 6.23531C16.409 7.24114 16.3064 8.28371 15.9139 9.23118C15.5214 10.1786 14.8568 10.9885 14.0041 11.5582C13.1515 12.128 12.1489 12.4321 11.1234 12.4321C9.74864 12.4307 8.43057 11.884 7.45845 10.9119C6.48634 9.93974 5.93961 8.62167 5.93823 7.24689ZM8.53082 7.24689C8.53082 7.75966 8.68288 8.26091 8.96776 8.68726C9.25263 9.11361 9.65754 9.44591 10.1313 9.64214C10.605 9.83836 11.1263 9.88971 11.6292 9.78967C12.1321 9.68963 12.5941 9.44271 12.9567 9.08013C13.3192 8.71755 13.5662 8.2556 13.6662 7.75268C13.7662 7.24977 13.7149 6.72849 13.5187 6.25475C13.3224 5.78102 12.9901 5.37611 12.5638 5.09123C12.1374 4.80635 11.6362 4.6543 11.1234 4.6543C10.436 4.65499 9.77699 4.92836 9.29094 5.41441C8.80488 5.90047 8.53151 6.55951 8.53082 7.24689Z" fill="#ffffff"/>
</g>
<defs>
<clipPath id="clip0">
<rect width="41.4815" height="41.4815" fill="white" transform="translate(0.753052 0.765442)"/>
</clipPath>
</defs>
</svg>
