<svg width="43" height="42" viewBox="0 0 43 42" fill="none" xmlns="http://www.w3.org/2000/svg">
<path d="M21.9778 18.7934C20.6818 18.7798 19.4188 18.383 18.3479 17.6531C17.2769 16.9231 16.4459 15.8927 15.9593 14.6914C15.4728 13.4901 15.3526 12.1718 15.6137 10.9023C15.8749 9.63285 16.5058 8.46904 17.4271 7.55741C18.3483 6.64577 19.5187 6.02707 20.7908 5.7792C22.0629 5.53133 23.3799 5.66537 24.576 6.16444C25.7721 6.66352 26.7939 7.50532 27.5125 8.58386C28.2312 9.6624 28.6147 10.9295 28.6148 12.2255C28.6026 13.9756 27.8973 15.6496 26.6532 16.8807C25.4092 18.1117 23.7279 18.7995 21.9778 18.7934ZM21.9778 7.96213C21.1376 7.97575 20.3203 8.23733 19.6283 8.714C18.9363 9.19067 18.4007 9.86118 18.0886 10.6413C17.7765 11.4214 17.7018 12.2764 17.8741 13.0988C18.0463 13.9212 18.4577 14.6744 19.0566 15.2638C19.6555 15.8531 20.4152 16.2523 21.2403 16.4113C22.0653 16.5703 22.919 16.4819 23.694 16.1573C24.469 15.8327 25.1308 15.2863 25.5963 14.5868C26.0618 13.8872 26.3102 13.0657 26.3103 12.2255C26.2981 11.0866 25.8356 9.99876 25.0237 9.19987C24.2119 8.40097 23.1168 7.95597 21.9778 7.96213Z" fill="#007A34"/>
<path d="M21.9778 18.7934C20.6818 18.7798 19.4188 18.383 18.3479 17.6531C17.2769 16.9231 16.4459 15.8927 15.9593 14.6914C15.4728 13.4901 15.3526 12.1718 15.6137 10.9023C15.8749 9.63285 16.5058 8.46904 17.4271 7.55741C18.3483 6.64577 19.5187 6.02707 20.7908 5.7792C22.0629 5.53133 23.3799 5.66537 24.576 6.16444C25.7721 6.66352 26.7939 7.50532 27.5125 8.58386C28.2312 9.6624 28.6147 10.9295 28.6148 12.2255C28.6026 13.9756 27.8973 15.6496 26.6532 16.8807C25.4092 18.1117 23.7279 18.7995 21.9778 18.7934ZM21.9778 7.96213C21.1376 7.97575 20.3203 8.23733 19.6283 8.714C18.9363 9.19067 18.4007 9.86118 18.0886 10.6413C17.7765 11.4214 17.7018 12.2764 17.8741 13.0988C18.0463 13.9212 18.4577 14.6744 19.0566 15.2638C19.6555 15.8531 20.4152 16.2523 21.2403 16.4113C22.0653 16.5703 22.919 16.4819 23.694 16.1573C24.469 15.8327 25.1308 15.2863 25.5963 14.5868C26.0618 13.8872 26.3102 13.0657 26.3103 12.2255C26.2981 11.0866 25.8356 9.99876 25.0237 9.19987C24.2119 8.40097 23.1168 7.95597 21.9778 7.96213Z" fill="#007A34"/>
<path d="M25.9992 20.3374C20.8884 19.4481 15.627 20.2575 11.0198 22.642C10.6928 22.8235 10.4219 23.0916 10.237 23.4167C10.0521 23.7419 9.96013 24.1117 9.97124 24.4856V28.5876C9.97124 28.8932 10.0926 29.1863 10.3087 29.4024C10.5248 29.6185 10.8179 29.7399 11.1235 29.7399C11.4291 29.7399 11.7222 29.6185 11.9383 29.4024C12.1544 29.1863 12.2758 28.8932 12.2758 28.5876V24.6354C16.548 22.4917 21.4063 21.8116 26.1029 22.6996L25.9992 20.3374Z" fill="#007A34"/>
<path d="M38.7778 25.3498H31.0576V23.6444C31.0576 23.3388 30.9362 23.0457 30.7201 22.8296C30.5041 22.6136 30.211 22.4922 29.9054 22.4922C29.5998 22.4922 29.3067 22.6136 29.0906 22.8296C28.8745 23.0457 28.7531 23.3388 28.7531 23.6444V25.3498H20.3416C20.036 25.3498 19.7429 25.4712 19.5268 25.6873C19.3107 25.9033 19.1893 26.1964 19.1893 26.502V38.0247C19.1893 38.3303 19.3107 38.6233 19.5268 38.8394C19.7429 39.0555 20.036 39.1769 20.3416 39.1769H38.7778C39.0834 39.1769 39.3765 39.0555 39.5926 38.8394C39.8087 38.6233 39.9301 38.3303 39.9301 38.0247V26.502C39.9301 26.1964 39.8087 25.9033 39.5926 25.6873C39.3765 25.4712 39.0834 25.3498 38.7778 25.3498ZM37.6255 36.8724H21.4939V27.6543H28.7531V28.1267C28.7531 28.4323 28.8745 28.7254 29.0906 28.9415C29.3067 29.1576 29.5998 29.279 29.9054 29.279C30.211 29.279 30.5041 29.1576 30.7201 28.9415C30.9362 28.7254 31.0576 28.4323 31.0576 28.1267V27.6543H37.6255V36.8724Z" fill="#007A34"/>
<path d="M25.8839 31.5951H32.7514V33.2082H25.8839V31.5951Z" fill="#007A34"/>
<path d="M13.2436 14.1037C10.0535 14.1571 6.91873 14.9457 4.08313 16.4082C3.77474 16.5711 3.51642 16.8148 3.33579 17.1131C3.15516 17.4115 3.05901 17.7533 3.05762 18.1021V21.6741C3.05762 21.9797 3.17902 22.2728 3.39511 22.4888C3.6112 22.7049 3.90428 22.8263 4.20988 22.8263C4.51548 22.8263 4.80856 22.7049 5.02465 22.4888C5.24074 22.2728 5.36214 21.9797 5.36214 21.6741V18.3325C8.07146 16.9839 11.0711 16.3231 14.0963 16.4082C13.7005 15.6861 13.4132 14.9096 13.2436 14.1037Z" fill="#007A34"/>
<path d="M38.9045 16.3967C36.3613 15.0626 33.5663 14.2775 30.7004 14.0922C30.5316 14.8966 30.2484 15.6727 29.8593 16.3967C32.5591 16.4613 35.2112 17.1224 37.6255 18.3325V21.6741C37.6255 21.9797 37.7469 22.2727 37.963 22.4888C38.1791 22.7049 38.4722 22.8263 38.7778 22.8263C39.0834 22.8263 39.3764 22.7049 39.5925 22.4888C39.8086 22.2727 39.93 21.9797 39.93 21.6741V18.102C39.9307 17.7513 39.8356 17.4071 39.6548 17.1065C39.4741 16.806 39.2146 16.5605 38.9045 16.3967Z" fill="#007A34"/>
<path d="M13.0362 12.2262V11.4541C12.1335 11.3333 11.3122 10.8691 10.7433 10.158C10.1743 9.44685 9.90151 8.5437 9.98169 7.63653C10.0619 6.72936 10.4888 5.88805 11.1737 5.28776C11.8585 4.68746 12.7485 4.37443 13.6584 4.41382C14.6048 4.4121 15.5144 4.78008 16.1934 5.43933C16.7924 4.94522 17.4504 4.52722 18.1522 4.19489C17.3682 3.29342 16.3295 2.65067 15.1729 2.35135C14.0163 2.05202 12.7962 2.11018 11.6733 2.51816C10.5505 2.92613 9.57757 3.66478 8.88288 4.63673C8.18819 5.60868 7.80432 6.76831 7.78186 7.96279C7.80604 9.42473 8.37435 10.8251 9.37579 11.8905C10.3772 12.9559 11.7398 13.6096 13.1975 13.7241C13.0998 13.2305 13.0458 12.7293 13.0362 12.2262Z" fill="#007A34"/>
<path d="M29.2947 2.10863C28.5029 2.1088 27.719 2.26684 26.9889 2.5735C26.2589 2.88016 25.5973 3.3293 25.0428 3.89464C25.8218 4.17691 26.5584 4.5646 27.2321 5.0469C27.7701 4.67348 28.3993 4.45306 29.0526 4.40913C29.706 4.3652 30.359 4.49942 30.9421 4.79746C31.5252 5.0955 32.0164 5.5462 32.3635 6.1015C32.7106 6.6568 32.9004 7.29589 32.9128 7.9506C32.9056 8.62311 32.708 9.2798 32.343 9.84467C31.9779 10.4095 31.4604 10.8595 30.8503 11.1424C30.8966 11.4977 30.9197 11.8557 30.9194 12.214C30.9163 12.6771 30.8778 13.1394 30.8042 13.5967C32.0594 13.274 33.1728 12.5453 33.971 11.5242C34.7691 10.503 35.2073 9.24665 35.2173 7.9506C35.2021 6.39194 34.5707 4.90264 33.461 3.80803C32.3512 2.71342 30.8534 2.10246 29.2947 2.10863Z" fill="#007A34"/>
</svg>
