<svg width="66" height="66" viewBox="0 0 66 66" fill="none" xmlns="http://www.w3.org/2000/svg">
<rect width="66" height="66" rx="20" fill="#F6FFF7"/>
<path d="M50.0234 39.6532H46.2556C46.4568 39.099 46.5621 38.5145 46.5667 37.9249V29.2832C46.5667 27.9081 46.0205 26.5892 45.0481 25.6169C44.0757 24.6445 42.7569 24.0982 41.3817 24.0982H31.0117C29.6366 24.0982 28.3178 24.6445 27.3454 25.6169C26.373 26.5892 25.8267 27.9081 25.8267 29.2832V37.9249C25.8314 38.5145 25.9366 39.099 26.1378 39.6532H24.0984C23.64 39.6532 23.2004 39.4711 22.8763 39.147C22.5522 38.8229 22.3701 38.3833 22.3701 37.9249V20.6415C22.3701 19.2664 21.8238 17.9476 20.8514 16.9752C19.879 16.0028 18.5602 15.4565 17.1851 15.4565H15.4567C14.9983 15.4565 14.5587 15.6386 14.2346 15.9628C13.9105 16.2869 13.7284 16.7265 13.7284 17.1849C13.7284 17.6433 13.9105 18.0829 14.2346 18.407C14.5587 18.7311 14.9983 18.9132 15.4567 18.9132H17.1851C17.6434 18.9132 18.0831 19.0953 18.4072 19.4194C18.7313 19.7436 18.9134 20.1832 18.9134 20.6415V37.9249C18.9198 39.0602 19.2986 40.1621 19.9917 41.0613C20.6849 41.9605 21.654 42.6073 22.7503 42.9025C22.432 43.6812 22.3079 44.5256 22.3888 45.363C22.4697 46.2003 22.7532 47.0054 23.2146 47.7087C23.6761 48.4121 24.3018 48.9926 25.0377 49.4002C25.7737 49.8077 26.5977 50.0301 27.4387 50.0481C28.2798 50.0662 29.1126 49.8793 29.8653 49.5036C30.618 49.1279 31.268 48.5748 31.7591 47.8918C32.2503 47.2089 32.568 46.4167 32.6847 45.5836C32.8014 44.7505 32.7136 43.9015 32.429 43.1099H38.2362C37.9519 43.893 37.8606 44.7332 37.9699 45.5591C38.0792 46.3851 38.3859 47.1725 38.8641 47.8548C39.3423 48.537 39.9778 49.094 40.7169 49.4786C41.456 49.8631 42.2769 50.0639 43.1101 50.0639C43.9432 50.0639 44.7641 49.8631 45.5032 49.4786C46.2423 49.094 46.8778 48.537 47.356 47.8548C47.8342 47.1725 48.1409 46.3851 48.2502 45.5591C48.3596 44.7332 48.2682 43.893 47.984 43.1099H50.0234C50.4818 43.1099 50.9214 42.9278 51.2455 42.6037C51.5696 42.2795 51.7517 41.8399 51.7517 41.3815C51.7517 40.9232 51.5696 40.4836 51.2455 40.1594C50.9214 39.8353 50.4818 39.6532 50.0234 39.6532ZM27.5551 46.5665C27.2132 46.5665 26.8791 46.4652 26.5948 46.2753C26.3106 46.0854 26.0891 45.8154 25.9583 45.4996C25.8275 45.1838 25.7932 44.8363 25.8599 44.501C25.9266 44.1658 26.0912 43.8578 26.3329 43.6161C26.5747 43.3744 26.8826 43.2098 27.2179 43.1431C27.5531 43.0764 27.9007 43.1106 28.2165 43.2414C28.5323 43.3723 28.8022 43.5938 28.9921 43.878C29.182 44.1622 29.2834 44.4964 29.2834 44.8382C29.2834 45.2966 29.1013 45.7362 28.7772 46.0603C28.4531 46.3845 28.0134 46.5665 27.5551 46.5665ZM31.0117 39.6532C30.5533 39.6532 30.1137 39.4711 29.7896 39.147C29.4655 38.8229 29.2834 38.3833 29.2834 37.9249V29.2832C29.2834 28.8248 29.4655 28.3852 29.7896 28.0611C30.1137 27.737 30.5533 27.5549 31.0117 27.5549H41.3817C41.8401 27.5549 42.2797 27.737 42.6038 28.0611C42.928 28.3852 43.1101 28.8248 43.1101 29.2832V37.9249C43.1101 38.3833 42.928 38.8229 42.6038 39.147C42.2797 39.4711 41.8401 39.6532 41.3817 39.6532H31.0117ZM43.1101 46.5665C42.7682 46.5665 42.4341 46.4652 42.1498 46.2753C41.8656 46.0854 41.6441 45.8154 41.5133 45.4996C41.3825 45.1838 41.3482 44.8363 41.4149 44.501C41.4816 44.1658 41.6462 43.8578 41.8879 43.6161C42.1297 43.3744 42.4376 43.2098 42.7729 43.1431C43.1081 43.0764 43.4557 43.1106 43.7715 43.2414C44.0873 43.3723 44.3572 43.5938 44.5471 43.878C44.737 44.1622 44.8384 44.4964 44.8384 44.8382C44.8384 45.2966 44.6563 45.7362 44.3322 46.0603C44.0081 46.3845 43.5684 46.5665 43.1101 46.5665Z" fill="#007A34"/>
</svg>
