<svg width="29" height="29" viewBox="0 0 29 29" fill="none" xmlns="http://www.w3.org/2000/svg">
<circle cx="14.5" cy="14.5" r="14.5" transform="rotate(-90 14.5 14.5)" fill="#F6FFF7"/>
<path d="M12.2899 17.88L16.1699 14L12.2899 10.12C12.1974 10.0274 12.1239 9.91753 12.0738 9.79657C12.0237 9.6756 11.9979 9.54595 11.9979 9.41502C11.9979 9.28409 12.0237 9.15444 12.0738 9.03348C12.1239 8.91252 12.1974 8.8026 12.2899 8.71002C12.3825 8.61744 12.4924 8.544 12.6134 8.4939C12.7344 8.44379 12.864 8.418 12.9949 8.418C13.1259 8.418 13.2555 8.44379 13.3765 8.4939C13.4975 8.544 13.6074 8.61744 13.6999 8.71002L18.2899 13.3C18.3826 13.3925 18.4562 13.5024 18.5064 13.6234C18.5566 13.7444 18.5824 13.8741 18.5824 14.005C18.5824 14.136 18.5566 14.2657 18.5064 14.3866C18.4562 14.5076 18.3826 14.6175 18.2899 14.71L13.6999 19.3C13.6074 19.3927 13.4975 19.4663 13.3766 19.5165C13.2556 19.5666 13.1259 19.5925 12.9949 19.5925C12.864 19.5925 12.7343 19.5666 12.6133 19.5165C12.4923 19.4663 12.3825 19.3927 12.2899 19.3C11.9099 18.91 11.8999 18.27 12.2899 17.88Z" fill="#323534"/>
</svg>
