<svg width="43" height="42" viewBox="0 0 43 42" fill="none" xmlns="http://www.w3.org/2000/svg">
<path d="M16.3086 24.1975L26.679 13.8272L16.3086 24.1975ZM17.1728 14.6914H17.1901H17.1728ZM25.8148 23.3333H25.8321H25.8148ZM33.5925 36.2963V8.64197C33.5925 7.72517 33.2284 6.84592 32.5801 6.19765C31.9318 5.54938 31.0526 5.18518 30.1358 5.18518H12.8518C11.935 5.18518 11.0558 5.54938 10.4075 6.19765C9.75922 6.84592 9.39502 7.72517 9.39502 8.64197V36.2963L15.4444 32.8395L21.4938 36.2963L27.5432 32.8395L33.5925 36.2963ZM18.037 14.6914C18.037 14.9206 17.9459 15.1404 17.7839 15.3024C17.6218 15.4645 17.402 15.5556 17.1728 15.5556C16.9436 15.5556 16.7238 15.4645 16.5617 15.3024C16.3996 15.1404 16.3086 14.9206 16.3086 14.6914C16.3086 14.4622 16.3996 14.2423 16.5617 14.0803C16.7238 13.9182 16.9436 13.8272 17.1728 13.8272C17.402 13.8272 17.6218 13.9182 17.7839 14.0803C17.9459 14.2423 18.037 14.4622 18.037 14.6914ZM26.679 23.3333C26.679 23.5625 26.5879 23.7823 26.4259 23.9444C26.2638 24.1065 26.044 24.1975 25.8148 24.1975C25.5856 24.1975 25.3658 24.1065 25.2037 23.9444C25.0416 23.7823 24.9506 23.5625 24.9506 23.3333C24.9506 23.1041 25.0416 22.8843 25.2037 22.7222C25.3658 22.5602 25.5856 22.4691 25.8148 22.4691C26.044 22.4691 26.2638 22.5602 26.4259 22.7222C26.5879 22.8843 26.679 23.1041 26.679 23.3333Z" stroke="#007A34" stroke-width="2" stroke-linecap="round" stroke-linejoin="round"/>
</svg>
