<svg width="39" height="36" viewBox="0 0 39 36" fill="none" xmlns="http://www.w3.org/2000/svg">
<path d="M37.0234 24.6532H33.2556C33.4568 24.099 33.5621 23.5145 33.5667 22.9249V14.2832C33.5667 12.9081 33.0205 11.5892 32.0481 10.6169C31.0757 9.64449 29.7569 9.09821 28.3817 9.09821H18.0117C16.6366 9.09821 15.3178 9.64449 14.3454 10.6169C13.373 11.5892 12.8267 12.9081 12.8267 14.2832V22.9249C12.8314 23.5145 12.9366 24.099 13.1378 24.6532H11.0984C10.64 24.6532 10.2004 24.4711 9.87628 24.147C9.55215 23.8229 9.37006 23.3833 9.37006 22.9249V5.64154C9.37006 4.2664 8.82378 2.94757 7.85141 1.97519C6.87903 1.00282 5.56021 0.456543 4.18506 0.456543H2.45673C1.99834 0.456543 1.55874 0.638635 1.23461 0.96276C0.910485 1.28689 0.728394 1.72649 0.728394 2.18488C0.728394 2.64326 0.910485 3.08287 1.23461 3.40699C1.55874 3.73112 1.99834 3.91321 2.45673 3.91321H4.18506C4.64344 3.91321 5.08305 4.0953 5.40718 4.41943C5.7313 4.74355 5.91339 5.18316 5.91339 5.64154V22.9249C5.91977 24.0602 6.2986 25.1621 6.99174 26.0613C7.68488 26.9605 8.65399 27.6073 9.75029 27.9025C9.43199 28.6812 9.30794 29.5256 9.38884 30.363C9.46974 31.2003 9.75316 32.0054 10.2146 32.7087C10.6761 33.4121 11.3018 33.9926 12.0377 34.4002C12.7737 34.8077 13.5977 35.0301 14.4387 35.0481C15.2798 35.0662 16.1126 34.8793 16.8653 34.5036C17.618 34.1279 18.268 33.5748 18.7591 32.8918C19.2503 32.2089 19.568 31.4167 19.6847 30.5836C19.8014 29.7505 19.7136 28.9015 19.429 28.1099H25.2362C24.9519 28.893 24.8606 29.7332 24.9699 30.5591C25.0792 31.3851 25.3859 32.1725 25.8641 32.8548C26.3423 33.537 26.9778 34.094 27.7169 34.4786C28.456 34.8631 29.2769 35.0639 30.1101 35.0639C30.9432 35.0639 31.7641 34.8631 32.5032 34.4786C33.2423 34.094 33.8778 33.537 34.356 32.8548C34.8342 32.1725 35.1409 31.3851 35.2502 30.5591C35.3596 29.7332 35.2682 28.893 34.984 28.1099H37.0234C37.4818 28.1099 37.9214 27.9278 38.2455 27.6037C38.5696 27.2795 38.7517 26.8399 38.7517 26.3815C38.7517 25.9232 38.5696 25.4836 38.2455 25.1594C37.9214 24.8353 37.4818 24.6532 37.0234 24.6532ZM14.5551 31.5665C14.2132 31.5665 13.8791 31.4652 13.5948 31.2753C13.3106 31.0854 13.0891 30.8154 12.9583 30.4996C12.8275 30.1838 12.7932 29.8363 12.8599 29.501C12.9266 29.1658 13.0912 28.8578 13.3329 28.6161C13.5747 28.3744 13.8826 28.2098 14.2179 28.1431C14.5531 28.0764 14.9007 28.1106 15.2165 28.2414C15.5323 28.3723 15.8022 28.5938 15.9921 28.878C16.182 29.1622 16.2834 29.4964 16.2834 29.8382C16.2834 30.2966 16.1013 30.7362 15.7772 31.0603C15.4531 31.3845 15.0134 31.5665 14.5551 31.5665ZM18.0117 24.6532C17.5533 24.6532 17.1137 24.4711 16.7896 24.147C16.4655 23.8229 16.2834 23.3833 16.2834 22.9249V14.2832C16.2834 13.8248 16.4655 13.3852 16.7896 13.0611C17.1137 12.737 17.5533 12.5549 18.0117 12.5549H28.3817C28.8401 12.5549 29.2797 12.737 29.6038 13.0611C29.928 13.3852 30.1101 13.8248 30.1101 14.2832V22.9249C30.1101 23.3833 29.928 23.8229 29.6038 24.147C29.2797 24.4711 28.8401 24.6532 28.3817 24.6532H18.0117ZM30.1101 31.5665C29.7682 31.5665 29.4341 31.4652 29.1498 31.2753C28.8656 31.0854 28.6441 30.8154 28.5133 30.4996C28.3825 30.1838 28.3482 29.8363 28.4149 29.501C28.4816 29.1658 28.6462 28.8578 28.8879 28.6161C29.1297 28.3744 29.4376 28.2098 29.7729 28.1431C30.1081 28.0764 30.4557 28.1106 30.7715 28.2414C31.0873 28.3723 31.3572 28.5938 31.5471 28.878C31.737 29.1622 31.8384 29.4964 31.8384 29.8382C31.8384 30.2966 31.6563 30.7362 31.3322 31.0603C31.0081 31.3845 30.5684 31.5665 30.1101 31.5665Z" fill="#007A34"/>
</svg>
