<svg width="62" height="62" viewBox="0 0 62 62" fill="none" xmlns="http://www.w3.org/2000/svg">
<path d="M31.7934 27.8078C29.6689 27.7854 27.5985 27.135 25.8429 25.9384C24.0873 24.7418 22.725 23.0526 21.9274 21.0834C21.1299 19.1142 20.9328 16.953 21.3609 14.872C21.789 12.791 22.8233 10.8832 24.3335 9.38876C25.8436 7.89433 27.7622 6.8801 29.8475 6.47377C31.9329 6.06744 34.0919 6.28717 36.0527 7.1053C38.0134 7.92343 39.6883 9.30338 40.8664 11.0714C42.0445 12.8394 42.6732 14.9165 42.6734 17.0411C42.6534 19.9101 41.4971 22.6542 39.4578 24.6723C37.4184 26.6903 34.6624 27.8178 31.7934 27.8078ZM31.7934 10.0522C30.4161 10.0745 29.0762 10.5033 27.9419 11.2847C26.8076 12.0661 25.9295 13.1653 25.4178 14.4442C24.9062 15.723 24.7839 17.1246 25.0662 18.4727C25.3485 19.8209 26.0229 21.0555 27.0047 22.0217C27.9865 22.9878 29.2318 23.6422 30.5844 23.9028C31.9369 24.1634 33.3363 24.0186 34.6067 23.4864C35.8772 22.9543 36.9621 22.0586 37.7251 20.9119C38.4882 19.7651 38.8954 18.4185 38.8956 17.0411C38.8756 15.1741 38.1174 13.3908 36.7865 12.0812C35.4557 10.7716 33.6605 10.0421 31.7934 10.0522Z" fill="#007A34"/>
<path d="M31.7934 27.8078C29.6689 27.7854 27.5985 27.135 25.8429 25.9384C24.0873 24.7418 22.725 23.0526 21.9274 21.0834C21.1299 19.1142 20.9328 16.953 21.3609 14.872C21.789 12.791 22.8233 10.8832 24.3335 9.38876C25.8436 7.89433 27.7622 6.8801 29.8475 6.47377C31.9329 6.06744 34.0919 6.28717 36.0527 7.1053C38.0134 7.92343 39.6883 9.30338 40.8664 11.0714C42.0445 12.8394 42.6732 14.9165 42.6734 17.0411C42.6534 19.9101 41.4971 22.6542 39.4578 24.6723C37.4184 26.6903 34.6624 27.8178 31.7934 27.8078ZM31.7934 10.0522C30.4161 10.0745 29.0762 10.5033 27.9419 11.2847C26.8076 12.0661 25.9295 13.1653 25.4178 14.4442C24.9062 15.723 24.7839 17.1246 25.0662 18.4727C25.3485 19.8209 26.0229 21.0555 27.0047 22.0217C27.9865 22.9878 29.2318 23.6422 30.5844 23.9028C31.9369 24.1634 33.3363 24.0186 34.6067 23.4864C35.8772 22.9543 36.9621 22.0586 37.7251 20.9119C38.4882 19.7651 38.8954 18.4185 38.8956 17.0411C38.8756 15.1741 38.1174 13.3908 36.7865 12.0812C35.4557 10.7716 33.6605 10.0421 31.7934 10.0522Z" fill="#007A34"/>
<path d="M38.3855 30.3389C30.0074 28.881 21.3824 30.208 13.83 34.1167C13.2939 34.4144 12.8499 34.8538 12.5468 35.3868C12.2436 35.9198 12.0929 36.526 12.1111 37.1389V43.8634C12.1111 44.3643 12.3101 44.8448 12.6643 45.199C13.0186 45.5532 13.499 45.7523 14 45.7523C14.5009 45.7523 14.9814 45.5532 15.3356 45.199C15.6899 44.8448 15.8889 44.3643 15.8889 43.8634V37.3845C22.8922 33.8705 30.8564 32.7555 38.5555 34.2111L38.3855 30.3389Z" fill="#007A34"/>
<path d="M59.3333 38.5555H46.6778V35.76C46.6778 35.259 46.4788 34.7786 46.1245 34.4243C45.7703 34.0701 45.2899 33.8711 44.7889 33.8711C44.2879 33.8711 43.8075 34.0701 43.4532 34.4243C43.099 34.7786 42.9 35.259 42.9 35.76V38.5555H29.1111C28.6102 38.5555 28.1297 38.7545 27.7755 39.1088C27.4212 39.463 27.2222 39.9435 27.2222 40.4444V59.3333C27.2222 59.8343 27.4212 60.3147 27.7755 60.669C28.1297 61.0232 28.6102 61.2222 29.1111 61.2222H59.3333C59.8343 61.2222 60.3148 61.0232 60.669 60.669C61.0232 60.3147 61.2222 59.8343 61.2222 59.3333V40.4444C61.2222 39.9435 61.0232 39.463 60.669 39.1088C60.3148 38.7545 59.8343 38.5555 59.3333 38.5555ZM57.4445 57.4444H31V42.3333H42.9V43.1078C42.9 43.6087 43.099 44.0892 43.4532 44.4434C43.8075 44.7976 44.2879 44.9966 44.7889 44.9966C45.2899 44.9966 45.7703 44.7976 46.1245 44.4434C46.4788 44.0892 46.6778 43.6087 46.6778 43.1078V42.3333H57.4445V57.4444Z" fill="#007A34"/>
<path d="M38.1967 48.7933H49.4544V51.4378H38.1967V48.7933Z" fill="#007A34"/>
<path d="M17.4755 20.12C12.2461 20.2075 7.10724 21.5003 2.45888 23.8978C1.95334 24.1648 1.52988 24.5642 1.23378 25.0533C0.93767 25.5424 0.780051 26.1027 0.777771 26.6744V32.53C0.777771 33.031 0.976778 33.5114 1.33101 33.8656C1.68525 34.2199 2.1657 34.4189 2.66666 34.4189C3.16762 34.4189 3.64807 34.2199 4.00231 33.8656C4.35654 33.5114 4.55555 33.031 4.55555 32.53V27.0522C8.99689 24.8415 13.9142 23.7581 18.8733 23.8978C18.2245 22.714 17.7535 21.441 17.4755 20.12Z" fill="#007A34"/>
<path d="M59.5411 23.8789C55.3721 21.692 50.7902 20.4049 46.0922 20.1011C45.8156 21.4198 45.3512 22.6921 44.7133 23.8789C49.1391 23.9848 53.4867 25.0685 57.4444 27.0522V32.53C57.4444 33.031 57.6434 33.5114 57.9977 33.8657C58.3519 34.2199 58.8324 34.4189 59.3333 34.4189C59.8343 34.4189 60.3147 34.2199 60.669 33.8657C61.0232 33.5114 61.2222 33.031 61.2222 32.53V26.6745C61.2234 26.0995 61.0674 25.5352 60.7711 25.0425C60.4748 24.5498 60.0495 24.1474 59.5411 23.8789Z" fill="#007A34"/>
<path d="M17.1355 17.0411V15.7756C15.6558 15.5776 14.3095 14.8165 13.3768 13.6508C12.4441 12.4851 11.9969 11.0045 12.1284 9.51742C12.2598 8.03031 12.9597 6.65117 14.0824 5.66711C15.2051 4.68306 16.664 4.1699 18.1556 4.23447C19.7069 4.23166 21.1981 4.83489 22.3111 5.91559C23.2931 5.10559 24.3717 4.42038 25.5222 3.87559C24.237 2.39783 22.5342 1.34417 20.6383 0.853495C18.7423 0.362822 16.7422 0.458162 14.9015 1.12695C13.0607 1.79574 11.4659 3.00658 10.3271 4.59989C9.18831 6.19319 8.55904 8.09416 8.52222 10.0523C8.56186 12.4488 9.49348 14.7445 11.1351 16.4909C12.7768 18.2373 15.0105 19.309 17.4 19.4967C17.2398 18.6876 17.1513 17.8658 17.1355 17.0411Z" fill="#007A34"/>
<path d="M43.7877 0.45668C42.4897 0.456965 41.2047 0.716035 40.0079 1.21874C38.8112 1.72145 37.7266 2.4577 36.8177 3.38446C38.0947 3.84718 39.3022 4.48272 40.4066 5.27335C41.2885 4.66121 42.3199 4.29987 43.3909 4.22786C44.462 4.15585 45.5325 4.37586 46.4883 4.86444C47.4441 5.35302 48.2495 6.09185 48.8184 7.00214C49.3873 7.91244 49.6985 8.96008 49.7189 10.0333C49.707 11.1358 49.3831 12.2123 48.7847 13.1383C48.1863 14.0642 47.338 14.8018 46.3378 15.2656C46.4137 15.848 46.4516 16.4348 46.4511 17.0222C46.446 17.7815 46.3829 18.5393 46.2622 19.2889C48.3199 18.7599 50.1451 17.5654 51.4535 15.8915C52.7619 14.2175 53.4802 12.1579 53.4966 10.0333C53.4717 7.47825 52.4366 5.03686 50.6175 3.24248C48.7983 1.4481 46.3429 0.446577 43.7877 0.45668Z" fill="#007A34"/>
</svg>
